<svg width="642" height="52" viewBox="0 0 642 52" fill="none" xmlns="http://www.w3.org/2000/svg">
<g clip-path="url(#clip0_123_81)">
<path d="M45.15 1H1V51H45.15V1Z" stroke="#5B5B5B" stroke-width="2"/>
<path d="M49.1584 7.07714L10.3849 2.8798C8.95735 2.72526 7.67477 3.75727 7.52023 5.18487L5.42155 24.5716C5.26701 25.9992 6.29903 27.2818 7.72663 27.4363L46.5001 31.6337C47.9277 31.7882 49.2103 30.7562 49.3648 29.3286L51.4635 9.94186C51.618 8.51426 50.586 7.23169 49.1584 7.07714Z" fill="#3CD0FF"/>
<path d="M13.7508 38.2223L12.2502 27.926L20.0049 28.7655C15.7918 31.4476 14.0801 36.1876 13.7508 38.2223Z" fill="#3CD0FF"/>
</g>
<path d="M76.48 37L83.72 10.6H92.08L93.92 25.68L101.36 10.6H108.36L109.08 30.36C109.187 32.9733 109.88 34.68 111.16 35.48C110.867 36.0133 110.293 36.5333 109.44 37.04C108.587 37.5467 107.587 37.8 106.44 37.8C105.32 37.8 104.427 37.64 103.76 37.32C103.093 37 102.573 36.5733 102.2 36.04C101.533 35.08 101.2 33.68 101.2 31.84V19.48L93.32 37H88.36L85.56 19.04L81.08 37H76.48ZM122.475 34.8C121.649 36.8 119.915 37.8 117.275 37.8C115.915 37.8 114.809 37.3333 113.955 36.4C113.235 35.5733 112.875 34.7467 112.875 33.92C112.875 31.76 113.369 28.5733 114.355 24.36L115.835 16.6L123.955 15.8L121.515 28.44C121.062 30.4133 120.835 31.7467 120.835 32.44C120.835 33.96 121.382 34.7467 122.475 34.8ZM116.555 11.04C116.555 10 116.982 9.2 117.835 8.64C118.715 8.08 119.782 7.8 121.035 7.8C122.289 7.8 123.289 8.08 124.035 8.64C124.809 9.2 125.195 10 125.195 11.04C125.195 12.08 124.769 12.8667 123.915 13.4C123.089 13.9333 122.049 14.2 120.795 14.2C119.542 14.2 118.515 13.9333 117.715 13.4C116.942 12.8667 116.555 12.08 116.555 11.04ZM145.523 20.36C145.523 21.48 145.056 22.3867 144.123 23.08C143.19 23.7733 141.963 24.12 140.443 24.12C139.803 24.12 139.296 24.0267 138.923 23.84C139.216 23.1467 139.403 22.3733 139.483 21.52C139.59 20.64 139.643 20.08 139.643 19.84C139.643 18.72 139.256 18.16 138.483 18.16C137.95 18.16 137.376 18.4933 136.763 19.16C136.176 19.8267 135.63 20.68 135.123 21.72C134.003 24.12 133.443 26.5333 133.443 28.96C133.443 30.2933 133.696 31.2667 134.203 31.88C134.71 32.4667 135.523 32.76 136.643 32.76C138.19 32.76 139.576 32.12 140.803 30.84C141.15 30.44 141.416 30.0133 141.603 29.56C142.616 30.0933 143.123 31.0933 143.123 32.56C143.123 34.0533 142.296 35.2933 140.643 36.28C138.936 37.2933 136.723 37.8 134.003 37.8C128.59 37.8 125.883 34.9333 125.883 29.2C125.883 25.0133 127.07 21.72 129.443 19.32C131.736 16.9733 134.99 15.8 139.203 15.8C143.416 15.8 145.523 17.32 145.523 20.36ZM159.106 25.76C160.066 24.0533 160.546 22.3333 160.546 20.6C160.546 19.4533 160.133 18.88 159.306 18.88C158.666 18.88 158.013 19.4267 157.346 20.52C156.653 21.6133 156.2 22.8667 155.986 24.28L153.906 37L145.626 37.8L149.706 16.6L156.306 15.8L155.586 19.84C156.893 17.1467 159.013 15.8 161.946 15.8C163.493 15.8 164.68 16.2 165.506 17C166.36 17.8 166.786 19.0267 166.786 20.68C166.786 22.3067 166.24 23.64 165.146 24.68C164.08 25.72 162.626 26.24 160.786 26.24C159.986 26.24 159.426 26.08 159.106 25.76ZM176.166 37.8C170.299 37.8 167.366 35.04 167.366 29.52C167.366 25.6 168.446 22.3733 170.606 19.84C172.899 17.1467 176.032 15.8 180.006 15.8C182.886 15.8 185.059 16.4667 186.526 17.8C187.992 19.1333 188.726 21.2 188.726 24C188.726 28.2667 187.579 31.64 185.286 34.12C183.046 36.5733 180.006 37.8 176.166 37.8ZM177.206 20.4C176.886 21.12 176.592 22.0267 176.326 23.12C176.086 24.1867 175.806 25.5733 175.486 27.28C175.166 28.9867 175.006 30.8933 175.006 33C175.006 33.6933 175.112 34.2667 175.326 34.72C175.566 35.1733 175.992 35.4 176.606 35.4C177.219 35.4 177.712 35.2533 178.086 34.96C178.486 34.6667 178.832 34.1733 179.126 33.48C179.659 32.2533 180.139 30.5067 180.566 28.24C180.992 25.9467 181.219 24.3067 181.246 23.32C181.299 22.3333 181.326 21.48 181.326 20.76C181.326 20.0133 181.219 19.4 181.006 18.92C180.792 18.44 180.379 18.2 179.766 18.2C179.179 18.2 178.686 18.3867 178.286 18.76C177.886 19.1333 177.526 19.68 177.206 20.4ZM190.558 35.08L195.518 9L203.638 8.2L202.398 14.32C202.105 15.5733 201.772 16.64 201.398 17.52C201.985 16.7733 202.918 16.2533 204.198 15.96C204.572 15.8533 204.985 15.8 205.438 15.8C207.918 15.8 209.838 16.56 211.198 18.08C212.558 19.5733 213.238 21.7733 213.238 24.68C213.238 28.4667 212.158 31.5467 209.998 33.92C207.678 36.5067 204.412 37.8 200.198 37.8C197.292 37.8 194.745 37.32 192.558 36.36C191.785 36.0133 191.118 35.5867 190.558 35.08ZM198.598 34.72C199.158 35.2 199.785 35.44 200.478 35.44C201.172 35.44 201.718 35.3067 202.118 35.04C202.518 34.7733 202.865 34.3733 203.158 33.84C203.958 32.4 204.678 29.48 205.318 25.08C205.505 23.8267 205.598 22.5733 205.598 21.32C205.598 20.0667 205.452 19.24 205.158 18.84C204.892 18.44 204.492 18.24 203.958 18.24C202.332 18.24 201.252 19.8267 200.718 23L198.598 34.72ZM225.209 34.8C224.382 36.8 222.649 37.8 220.009 37.8C218.675 37.8 217.582 37.3333 216.729 36.4C216.035 35.6267 215.689 34.8 215.689 33.92C215.689 31.92 216.155 28.7333 217.089 24.36L220.009 9L228.129 8.2L224.249 28.44C223.795 30.4133 223.569 31.7467 223.569 32.44C223.569 33.96 224.115 34.7467 225.209 34.8ZM237.338 37.8C231.471 37.8 228.538 35.04 228.538 29.52C228.538 25.6 229.618 22.3733 231.778 19.84C234.071 17.1467 237.204 15.8 241.178 15.8C244.058 15.8 246.231 16.4667 247.698 17.8C249.164 19.1333 249.898 21.2 249.898 24C249.898 28.2667 248.751 31.64 246.458 34.12C244.218 36.5733 241.178 37.8 237.338 37.8ZM238.378 20.4C238.058 21.12 237.764 22.0267 237.498 23.12C237.258 24.1867 236.978 25.5733 236.658 27.28C236.338 28.9867 236.178 30.8933 236.178 33C236.178 33.6933 236.284 34.2667 236.498 34.72C236.738 35.1733 237.164 35.4 237.778 35.4C238.391 35.4 238.884 35.2533 239.258 34.96C239.658 34.6667 240.004 34.1733 240.298 33.48C240.831 32.2533 241.311 30.5067 241.738 28.24C242.164 25.9467 242.391 24.3067 242.418 23.32C242.471 22.3333 242.498 21.48 242.498 20.76C242.498 20.0133 242.391 19.4 242.178 18.92C241.964 18.44 241.551 18.2 240.938 18.2C240.351 18.2 239.858 18.3867 239.458 18.76C239.058 19.1333 238.698 19.68 238.378 20.4ZM255.09 20.28C255.997 19 257.13 17.9333 258.49 17.08C259.877 16.2267 261.41 15.8 263.09 15.8C264.77 15.8 266.01 16.0667 266.81 16.6L274.65 15.8L271.93 31.16C270.997 36.3867 269.544 40.0267 267.57 42.08C265.677 44.0267 262.89 45 259.21 45C256.41 45 254.21 44.56 252.61 43.68C251.01 42.8 250.21 41.6267 250.21 40.16C250.21 39.0667 250.624 38.2 251.45 37.56C252.277 36.9467 253.33 36.64 254.61 36.64C255.73 36.64 256.717 36.8933 257.57 37.4C258.077 37.6667 258.45 37.9867 258.69 38.36C258.077 38.8933 257.77 39.6 257.77 40.48C257.77 41.6267 258.304 42.2 259.37 42.2C261.157 42.2 262.557 40.0933 263.57 35.88C263.864 34.7333 264.13 33.5867 264.37 32.44C263.17 33.9067 261.21 34.64 258.49 34.64C256.597 34.64 255.104 34.1867 254.01 33.28C252.917 32.3733 252.37 30.8533 252.37 28.72C252.37 27.3867 252.597 25.9733 253.05 24.48C253.504 22.96 254.184 21.56 255.09 20.28ZM260.29 28.84C260.29 30.6533 260.757 31.56 261.69 31.56C262.33 31.56 262.957 31.2133 263.57 30.52C264.05 29.96 264.384 29.2667 264.57 28.44L266.61 18.16C266.477 18.1333 266.344 18.0933 266.21 18.04C265.944 17.9333 265.637 17.88 265.29 17.88C263.664 17.88 262.37 19.2133 261.41 21.88C260.664 23.96 260.29 26.28 260.29 28.84Z" fill="black"/>
<path d="M76.48 37L83.72 10.6H92.08L93.92 25.68L101.36 10.6H108.36L109.08 30.36C109.187 32.9733 109.88 34.68 111.16 35.48C110.867 36.0133 110.293 36.5333 109.44 37.04C108.587 37.5467 107.587 37.8 106.44 37.8C105.32 37.8 104.427 37.64 103.76 37.32C103.093 37 102.573 36.5733 102.2 36.04C101.533 35.08 101.2 33.68 101.2 31.84V19.48L93.32 37H88.36L85.56 19.04L81.08 37H76.48ZM122.475 34.8C121.649 36.8 119.915 37.8 117.275 37.8C115.915 37.8 114.809 37.3333 113.955 36.4C113.235 35.5733 112.875 34.7467 112.875 33.92C112.875 31.76 113.369 28.5733 114.355 24.36L115.835 16.6L123.955 15.8L121.515 28.44C121.062 30.4133 120.835 31.7467 120.835 32.44C120.835 33.96 121.382 34.7467 122.475 34.8ZM116.555 11.04C116.555 10 116.982 9.2 117.835 8.64C118.715 8.08 119.782 7.8 121.035 7.8C122.289 7.8 123.289 8.08 124.035 8.64C124.809 9.2 125.195 10 125.195 11.04C125.195 12.08 124.769 12.8667 123.915 13.4C123.089 13.9333 122.049 14.2 120.795 14.2C119.542 14.2 118.515 13.9333 117.715 13.4C116.942 12.8667 116.555 12.08 116.555 11.04ZM145.523 20.36C145.523 21.48 145.056 22.3867 144.123 23.08C143.19 23.7733 141.963 24.12 140.443 24.12C139.803 24.12 139.296 24.0267 138.923 23.84C139.216 23.1467 139.403 22.3733 139.483 21.52C139.59 20.64 139.643 20.08 139.643 19.84C139.643 18.72 139.256 18.16 138.483 18.16C137.95 18.16 137.376 18.4933 136.763 19.16C136.176 19.8267 135.63 20.68 135.123 21.72C134.003 24.12 133.443 26.5333 133.443 28.96C133.443 30.2933 133.696 31.2667 134.203 31.88C134.71 32.4667 135.523 32.76 136.643 32.76C138.19 32.76 139.576 32.12 140.803 30.84C141.15 30.44 141.416 30.0133 141.603 29.56C142.616 30.0933 143.123 31.0933 143.123 32.56C143.123 34.0533 142.296 35.2933 140.643 36.28C138.936 37.2933 136.723 37.8 134.003 37.8C128.59 37.8 125.883 34.9333 125.883 29.2C125.883 25.0133 127.07 21.72 129.443 19.32C131.736 16.9733 134.99 15.8 139.203 15.8C143.416 15.8 145.523 17.32 145.523 20.36ZM159.106 25.76C160.066 24.0533 160.546 22.3333 160.546 20.6C160.546 19.4533 160.133 18.88 159.306 18.88C158.666 18.88 158.013 19.4267 157.346 20.52C156.653 21.6133 156.2 22.8667 155.986 24.28L153.906 37L145.626 37.8L149.706 16.6L156.306 15.8L155.586 19.84C156.893 17.1467 159.013 15.8 161.946 15.8C163.493 15.8 164.68 16.2 165.506 17C166.36 17.8 166.786 19.0267 166.786 20.68C166.786 22.3067 166.24 23.64 165.146 24.68C164.08 25.72 162.626 26.24 160.786 26.24C159.986 26.24 159.426 26.08 159.106 25.76ZM176.166 37.8C170.299 37.8 167.366 35.04 167.366 29.52C167.366 25.6 168.446 22.3733 170.606 19.84C172.899 17.1467 176.032 15.8 180.006 15.8C182.886 15.8 185.059 16.4667 186.526 17.8C187.992 19.1333 188.726 21.2 188.726 24C188.726 28.2667 187.579 31.64 185.286 34.12C183.046 36.5733 180.006 37.8 176.166 37.8ZM177.206 20.4C176.886 21.12 176.592 22.0267 176.326 23.12C176.086 24.1867 175.806 25.5733 175.486 27.28C175.166 28.9867 175.006 30.8933 175.006 33C175.006 33.6933 175.112 34.2667 175.326 34.72C175.566 35.1733 175.992 35.4 176.606 35.4C177.219 35.4 177.712 35.2533 178.086 34.96C178.486 34.6667 178.832 34.1733 179.126 33.48C179.659 32.2533 180.139 30.5067 180.566 28.24C180.992 25.9467 181.219 24.3067 181.246 23.32C181.299 22.3333 181.326 21.48 181.326 20.76C181.326 20.0133 181.219 19.4 181.006 18.92C180.792 18.44 180.379 18.2 179.766 18.2C179.179 18.2 178.686 18.3867 178.286 18.76C177.886 19.1333 177.526 19.68 177.206 20.4ZM190.558 35.08L195.518 9L203.638 8.2L202.398 14.32C202.105 15.5733 201.772 16.64 201.398 17.52C201.985 16.7733 202.918 16.2533 204.198 15.96C204.572 15.8533 204.985 15.8 205.438 15.8C207.918 15.8 209.838 16.56 211.198 18.08C212.558 19.5733 213.238 21.7733 213.238 24.68C213.238 28.4667 212.158 31.5467 209.998 33.92C207.678 36.5067 204.412 37.8 200.198 37.8C197.292 37.8 194.745 37.32 192.558 36.36C191.785 36.0133 191.118 35.5867 190.558 35.08ZM198.598 34.72C199.158 35.2 199.785 35.44 200.478 35.44C201.172 35.44 201.718 35.3067 202.118 35.04C202.518 34.7733 202.865 34.3733 203.158 33.84C203.958 32.4 204.678 29.48 205.318 25.08C205.505 23.8267 205.598 22.5733 205.598 21.32C205.598 20.0667 205.452 19.24 205.158 18.84C204.892 18.44 204.492 18.24 203.958 18.24C202.332 18.24 201.252 19.8267 200.718 23L198.598 34.72ZM225.209 34.8C224.382 36.8 222.649 37.8 220.009 37.8C218.675 37.8 217.582 37.3333 216.729 36.4C216.035 35.6267 215.689 34.8 215.689 33.92C215.689 31.92 216.155 28.7333 217.089 24.36L220.009 9L228.129 8.2L224.249 28.44C223.795 30.4133 223.569 31.7467 223.569 32.44C223.569 33.96 224.115 34.7467 225.209 34.8ZM237.338 37.8C231.471 37.8 228.538 35.04 228.538 29.52C228.538 25.6 229.618 22.3733 231.778 19.84C234.071 17.1467 237.204 15.8 241.178 15.8C244.058 15.8 246.231 16.4667 247.698 17.8C249.164 19.1333 249.898 21.2 249.898 24C249.898 28.2667 248.751 31.64 246.458 34.12C244.218 36.5733 241.178 37.8 237.338 37.8ZM238.378 20.4C238.058 21.12 237.764 22.0267 237.498 23.12C237.258 24.1867 236.978 25.5733 236.658 27.28C236.338 28.9867 236.178 30.8933 236.178 33C236.178 33.6933 236.284 34.2667 236.498 34.72C236.738 35.1733 237.164 35.4 237.778 35.4C238.391 35.4 238.884 35.2533 239.258 34.96C239.658 34.6667 240.004 34.1733 240.298 33.48C240.831 32.2533 241.311 30.5067 241.738 28.24C242.164 25.9467 242.391 24.3067 242.418 23.32C242.471 22.3333 242.498 21.48 242.498 20.76C242.498 20.0133 242.391 19.4 242.178 18.92C241.964 18.44 241.551 18.2 240.938 18.2C240.351 18.2 239.858 18.3867 239.458 18.76C239.058 19.1333 238.698 19.68 238.378 20.4ZM255.09 20.28C255.997 19 257.13 17.9333 258.49 17.08C259.877 16.2267 261.41 15.8 263.09 15.8C264.77 15.8 266.01 16.0667 266.81 16.6L274.65 15.8L271.93 31.16C270.997 36.3867 269.544 40.0267 267.57 42.08C265.677 44.0267 262.89 45 259.21 45C256.41 45 254.21 44.56 252.61 43.68C251.01 42.8 250.21 41.6267 250.21 40.16C250.21 39.0667 250.624 38.2 251.45 37.56C252.277 36.9467 253.33 36.64 254.61 36.64C255.73 36.64 256.717 36.8933 257.57 37.4C258.077 37.6667 258.45 37.9867 258.69 38.36C258.077 38.8933 257.77 39.6 257.77 40.48C257.77 41.6267 258.304 42.2 259.37 42.2C261.157 42.2 262.557 40.0933 263.57 35.88C263.864 34.7333 264.13 33.5867 264.37 32.44C263.17 33.9067 261.21 34.64 258.49 34.64C256.597 34.64 255.104 34.1867 254.01 33.28C252.917 32.3733 252.37 30.8533 252.37 28.72C252.37 27.3867 252.597 25.9733 253.05 24.48C253.504 22.96 254.184 21.56 255.09 20.28ZM260.29 28.84C260.29 30.6533 260.757 31.56 261.69 31.56C262.33 31.56 262.957 31.2133 263.57 30.52C264.05 29.96 264.384 29.2667 264.57 28.44L266.61 18.16C266.477 18.1333 266.344 18.0933 266.21 18.04C265.944 17.9333 265.637 17.88 265.29 17.88C263.664 17.88 262.37 19.2133 261.41 21.88C260.664 23.96 260.29 26.28 260.29 28.84Z" fill="black"/>
<path d="M533.264 21.9004C533.205 21.8743 533.062 21.832 532.834 21.7734C532.613 21.7083 532.31 21.6465 531.926 21.5879C531.548 21.5293 531.138 21.5 530.695 21.5C529.348 21.5 528.309 21.9915 527.58 22.9746C526.857 23.9512 526.496 25.3607 526.496 27.2031C526.496 28.9349 526.887 30.2337 527.668 31.0996C528.449 31.9655 529.494 32.3984 530.803 32.3984C531.428 32.3984 532.036 32.278 532.629 32.0371C533.221 31.7962 533.729 31.5358 534.152 31.2559C534.582 30.9759 534.797 30.8229 534.797 30.7969L535.598 32.0957C535.598 32.1348 535.357 32.3398 534.875 32.7109C534.4 33.0755 533.791 33.4141 533.049 33.7266C532.307 34.0391 531.49 34.1953 530.598 34.1953C528.573 34.1953 527.001 33.6029 525.881 32.418C524.761 31.2331 524.201 29.5273 524.201 27.3008C524.201 25.7839 524.475 24.4622 525.021 23.3359C525.568 22.2031 526.343 21.3307 527.346 20.7188C528.355 20.1068 529.54 19.8008 530.9 19.8008C531.551 19.8008 532.209 19.8757 532.873 20.0254C533.544 20.1686 534.133 20.3314 534.641 20.5137C535.148 20.6895 535.402 20.7839 535.402 20.7969L535.305 24.1953H533.801L533.264 21.9004ZM537.805 24C537.909 23.9609 538.169 23.8796 538.586 23.7559C539.009 23.6257 539.507 23.502 540.08 23.3848C540.653 23.2611 541.193 23.1992 541.701 23.1992C542.912 23.1992 543.83 23.4401 544.455 23.9219C545.087 24.4036 545.402 25.1979 545.402 26.3047V32.3984L547.004 32.7988V33.9023L543.898 34L543.479 32.6035C543.049 33.0332 542.551 33.4076 541.984 33.7266C541.424 34.0391 540.829 34.1953 540.197 34.1953C539.253 34.1953 538.518 33.9349 537.99 33.4141C537.463 32.8867 537.199 32.1478 537.199 31.1973C537.199 30.0905 537.596 29.2995 538.391 28.8242C539.185 28.3424 540.321 28.1016 541.799 28.1016H543.4V26.5C543.4 25.9141 543.238 25.4681 542.912 25.1621C542.587 24.8561 542.115 24.7031 541.496 24.7031C541.138 24.7031 540.809 24.7259 540.51 24.7715C540.21 24.8171 539.973 24.8626 539.797 24.9082C539.628 24.9538 539.523 24.9831 539.484 24.9961L539.201 26.5H537.902L537.805 24ZM542.004 29.4004C541.014 29.4004 540.305 29.5339 539.875 29.8008C539.452 30.0677 539.24 30.5007 539.24 31.0996C539.24 31.5553 539.37 31.9199 539.631 32.1934C539.891 32.4668 540.249 32.6035 540.705 32.6035C541.148 32.6035 541.568 32.4831 541.965 32.2422C542.362 32.0013 542.701 31.7409 542.98 31.4609C543.26 31.181 543.4 31.028 543.4 31.002V29.4004H542.004ZM553.645 34H548.107V32.8965L549.807 32.3984V20.2012L548.107 19.8008V18.6973L551.848 18.5996V32.3984L553.645 32.8965V34ZM556.643 29C556.643 30.0938 556.91 30.9694 557.443 31.627C557.977 32.278 558.677 32.6035 559.543 32.6035C560.129 32.6035 560.673 32.5221 561.174 32.3594C561.675 32.1966 562.089 32.0208 562.414 31.832C562.74 31.6367 562.902 31.526 562.902 31.5L563.605 32.5352C563.605 32.5612 563.387 32.724 562.951 33.0234C562.521 33.3164 561.988 33.5866 561.35 33.834C560.718 34.0749 560.048 34.1953 559.338 34.1953C557.762 34.1953 556.568 33.7201 555.754 32.7695C554.947 31.819 554.543 30.4974 554.543 28.8047C554.543 27.75 554.748 26.7962 555.158 25.9434C555.575 25.0905 556.154 24.4199 556.896 23.9316C557.645 23.4434 558.495 23.1992 559.445 23.1992C562.245 23.1992 563.645 24.765 563.645 27.8965C563.645 28.1113 563.632 28.3262 563.605 28.541C563.579 28.7559 563.56 28.8958 563.547 28.9609L556.643 29ZM561.525 27.4961C561.525 26.6823 561.35 26.0247 560.998 25.5234C560.653 25.0156 560.1 24.7617 559.338 24.7617C558.563 24.7617 557.948 25.0221 557.492 25.543C557.043 26.0638 556.786 26.7148 556.721 27.4961H561.525ZM568.82 24.8203C569.237 24.4622 569.781 24.1042 570.451 23.7461C571.128 23.3815 571.825 23.1992 572.541 23.1992C573.609 23.1992 574.41 23.5182 574.943 24.1562C575.477 24.7878 575.744 25.6699 575.744 26.8027V32.3984L577.238 32.8965V34H572.443V32.8965L573.742 32.3984V26.998C573.742 26.2754 573.602 25.7448 573.322 25.4062C573.042 25.0677 572.583 24.8984 571.945 24.8984C571.438 24.8984 570.969 25.0189 570.539 25.2598C570.116 25.5007 569.761 25.7611 569.475 26.041C569.188 26.321 569.045 26.474 569.045 26.5V32.3984L570.344 32.8965V34H565.344V32.8965L567.043 32.3984V24.9961L565.344 24.5957V23.502L568.645 23.4043L568.82 24.8203ZM589.641 33.9023L586.242 34L586.086 32.8574C585.194 33.7493 584.146 34.1953 582.941 34.1953C581.542 34.1953 580.49 33.7331 579.787 32.8086C579.09 31.8841 578.742 30.6146 578.742 29C578.742 27.2292 579.188 25.8197 580.08 24.7715C580.979 23.7233 582.3 23.1992 584.045 23.1992C584.696 23.1992 585.327 23.3066 585.939 23.5215V20.2012L584.24 19.8008V18.6973L587.941 18.5996V32.3984L589.641 32.7988V33.9023ZM585.939 25.2012C585.9 25.1751 585.799 25.1328 585.637 25.0742C585.48 25.0091 585.246 24.9473 584.934 24.8887C584.621 24.8301 584.257 24.8008 583.84 24.8008C581.841 24.8008 580.842 26.1354 580.842 28.8047C580.842 29.9766 581.044 30.9043 581.447 31.5879C581.857 32.265 582.489 32.6035 583.342 32.6035C583.85 32.6035 584.296 32.4928 584.68 32.2715C585.07 32.0501 585.376 31.8092 585.598 31.5488C585.826 31.2884 585.939 31.1387 585.939 31.0996V25.2012ZM591.652 24C591.757 23.9609 592.017 23.8796 592.434 23.7559C592.857 23.6257 593.355 23.502 593.928 23.3848C594.501 23.2611 595.041 23.1992 595.549 23.1992C596.76 23.1992 597.678 23.4401 598.303 23.9219C598.934 24.4036 599.25 25.1979 599.25 26.3047V32.3984L600.852 32.7988V33.9023L597.746 34L597.326 32.6035C596.896 33.0332 596.398 33.4076 595.832 33.7266C595.272 34.0391 594.676 34.1953 594.045 34.1953C593.101 34.1953 592.365 33.9349 591.838 33.4141C591.311 32.8867 591.047 32.1478 591.047 31.1973C591.047 30.0905 591.444 29.2995 592.238 28.8242C593.033 28.3424 594.169 28.1016 595.646 28.1016H597.248V26.5C597.248 25.9141 597.085 25.4681 596.76 25.1621C596.434 24.8561 595.962 24.7031 595.344 24.7031C594.986 24.7031 594.657 24.7259 594.357 24.7715C594.058 24.8171 593.82 24.8626 593.645 24.9082C593.475 24.9538 593.371 24.9831 593.332 24.9961L593.049 26.5H591.75L591.652 24ZM595.852 29.4004C594.862 29.4004 594.152 29.5339 593.723 29.8008C593.299 30.0677 593.088 30.5007 593.088 31.0996C593.088 31.5553 593.218 31.9199 593.479 32.1934C593.739 32.4668 594.097 32.6035 594.553 32.6035C594.995 32.6035 595.415 32.4831 595.812 32.2422C596.21 32.0013 596.548 31.7409 596.828 31.4609C597.108 31.181 597.248 31.028 597.248 31.002V29.4004H595.852ZM605.734 24.8594C606.112 24.4492 606.558 24.0716 607.072 23.7266C607.593 23.375 608.156 23.1992 608.762 23.1992C609.055 23.1992 609.331 23.222 609.592 23.2676C609.859 23.3132 610.077 23.362 610.246 23.4141C610.415 23.4596 610.52 23.4889 610.559 23.502L610.461 26.4023H609.152L608.859 24.8984C608.195 24.8984 607.622 25.0579 607.141 25.377C606.659 25.696 606.265 26.0573 605.959 26.4609V32.3984L607.961 32.8965V34H602.258V32.8965L603.957 32.3984V24.9961L602.258 24.5957V23.502L605.559 23.4043L605.734 24.8594Z" fill="black"/>
<path d="M405.5 21.5977L403.801 21.1973V20.1035L407.6 19.9961H409.797C411.21 19.9961 412.313 20.3184 413.107 20.9629C413.902 21.6009 414.299 22.4798 414.299 23.5996C414.299 25.5592 413.433 26.8581 411.701 27.4961C412.02 27.776 412.421 28.3783 412.902 29.3027L414.484 32.4766L415.9 32.7988V34H412.902L411.203 30.2988C410.884 29.6087 410.604 29.1009 410.363 28.7754C410.122 28.4434 409.865 28.2155 409.592 28.0918C409.318 27.9616 408.954 27.8965 408.498 27.8965H407.6V32.3984L409.299 32.7988V34H403.801V32.7988L405.5 32.3984V21.5977ZM409.104 26.4023C410.074 26.4023 410.832 26.1842 411.379 25.748C411.926 25.3053 412.199 24.6901 412.199 23.9023C412.199 23.2383 411.965 22.6882 411.496 22.252C411.034 21.8158 410.435 21.5977 409.699 21.5977H407.6V26.4023H409.104ZM418.908 29C418.908 30.0938 419.175 30.9694 419.709 31.627C420.243 32.278 420.943 32.6035 421.809 32.6035C422.395 32.6035 422.938 32.5221 423.439 32.3594C423.941 32.1966 424.354 32.0208 424.68 31.832C425.005 31.6367 425.168 31.526 425.168 31.5L425.871 32.5352C425.871 32.5612 425.653 32.724 425.217 33.0234C424.787 33.3164 424.253 33.5866 423.615 33.834C422.984 34.0749 422.313 34.1953 421.604 34.1953C420.028 34.1953 418.833 33.7201 418.02 32.7695C417.212 31.819 416.809 30.4974 416.809 28.8047C416.809 27.75 417.014 26.7962 417.424 25.9434C417.84 25.0905 418.42 24.4199 419.162 23.9316C419.911 23.4434 420.76 23.1992 421.711 23.1992C424.51 23.1992 425.91 24.765 425.91 27.8965C425.91 28.1113 425.897 28.3262 425.871 28.541C425.845 28.7559 425.826 28.8958 425.812 28.9609L418.908 29ZM423.791 27.4961C423.791 26.6823 423.615 26.0247 423.264 25.5234C422.919 25.0156 422.365 24.7617 421.604 24.7617C420.829 24.7617 420.214 25.0221 419.758 25.543C419.309 26.0638 419.051 26.7148 418.986 27.4961H423.791ZM434.699 24.9961C434.608 24.9701 434.39 24.931 434.045 24.8789C433.7 24.8268 433.319 24.8008 432.902 24.8008C431.945 24.8008 431.206 25.11 430.686 25.7285C430.165 26.347 429.904 27.2715 429.904 28.502C429.904 29.8366 430.178 30.8555 430.725 31.5586C431.271 32.2552 432.03 32.6035 433 32.6035C433.56 32.6035 434.071 32.5124 434.533 32.3301C434.995 32.1478 435.373 31.9557 435.666 31.7539C435.959 31.5456 436.105 31.4284 436.105 31.4023L436.809 32.6035C436.809 32.6296 436.6 32.7826 436.184 33.0625C435.773 33.3424 435.269 33.6029 434.67 33.8438C434.077 34.0781 433.456 34.1953 432.805 34.1953C431.177 34.1953 429.937 33.7135 429.084 32.75C428.231 31.7865 427.805 30.4355 427.805 28.6973C427.805 27.6296 428.016 26.679 428.439 25.8457C428.869 25.0124 429.475 24.3646 430.256 23.9023C431.037 23.4336 431.952 23.1992 433 23.1992C433.534 23.1992 434.055 23.2611 434.562 23.3848C435.07 23.502 435.484 23.6257 435.803 23.7559C436.122 23.8796 436.324 23.9609 436.408 24L436.301 26.6953H435.002L434.699 24.9961ZM440.1 29C440.1 30.0938 440.367 30.9694 440.9 31.627C441.434 32.278 442.134 32.6035 443 32.6035C443.586 32.6035 444.13 32.5221 444.631 32.3594C445.132 32.1966 445.546 32.0208 445.871 31.832C446.197 31.6367 446.359 31.526 446.359 31.5L447.062 32.5352C447.062 32.5612 446.844 32.724 446.408 33.0234C445.979 33.3164 445.445 33.5866 444.807 33.834C444.175 34.0749 443.505 34.1953 442.795 34.1953C441.219 34.1953 440.025 33.7201 439.211 32.7695C438.404 31.819 438 30.4974 438 28.8047C438 27.75 438.205 26.7962 438.615 25.9434C439.032 25.0905 439.611 24.4199 440.354 23.9316C441.102 23.4434 441.952 23.1992 442.902 23.1992C445.702 23.1992 447.102 24.765 447.102 27.8965C447.102 28.1113 447.089 28.3262 447.062 28.541C447.036 28.7559 447.017 28.8958 447.004 28.9609L440.1 29ZM444.982 27.4961C444.982 26.6823 444.807 26.0247 444.455 25.5234C444.11 25.0156 443.557 24.7617 442.795 24.7617C442.02 24.7617 441.405 25.0221 440.949 25.543C440.5 26.0638 440.243 26.7148 440.178 27.4961H444.982ZM452.277 24.8203C452.694 24.4622 453.238 24.1042 453.908 23.7461C454.585 23.3815 455.282 23.1992 455.998 23.1992C457.066 23.1992 457.867 23.5182 458.4 24.1562C458.934 24.7878 459.201 25.6699 459.201 26.8027V32.3984L460.695 32.8965V34H455.9V32.8965L457.199 32.3984V26.998C457.199 26.2754 457.059 25.7448 456.779 25.4062C456.499 25.0677 456.04 24.8984 455.402 24.8984C454.895 24.8984 454.426 25.0189 453.996 25.2598C453.573 25.5007 453.218 25.7611 452.932 26.041C452.645 26.321 452.502 26.474 452.502 26.5V32.3984L453.801 32.8965V34H448.801V32.8965L450.5 32.3984V24.9961L448.801 24.5957V23.502L452.102 23.4043L452.277 24.8203ZM468.605 24.9961H465.705V31.4219C465.705 32.2357 466.037 32.6426 466.701 32.6426C467.131 32.6426 467.652 32.4766 468.264 32.1445L468.801 33.1992C467.896 33.8633 466.962 34.1953 465.998 34.1953C465.321 34.1953 464.768 33.974 464.338 33.5312C463.915 33.082 463.703 32.3398 463.703 31.3047V24.9961H461.701V23.6973L463.703 23.502V20.9824L465.705 20.582V23.502H468.605V24.9961Z" fill="black"/>
<g clip-path="url(#clip1_123_81)">
<path d="M45.15 1H1V51H45.15V1Z" stroke="#5B5B5B" stroke-width="2"/>
<path d="M49.1584 7.07714L10.3849 2.8798C8.95735 2.72526 7.67477 3.75727 7.52023 5.18487L5.42155 24.5716C5.26701 25.9992 6.29903 27.2818 7.72663 27.4363L46.5001 31.6337C47.9277 31.7882 49.2103 30.7562 49.3648 29.3286L51.4635 9.94186C51.618 8.51426 50.586 7.23169 49.1584 7.07714Z" fill="#3CD0FF"/>
<path d="M13.7508 38.2223L12.2502 27.926L20.0049 28.7655C15.7918 31.4476 14.0801 36.1876 13.7508 38.2223Z" fill="#3CD0FF"/>
</g>
<path d="M76.48 37L83.72 10.6H92.08L93.92 25.68L101.36 10.6H108.36L109.08 30.36C109.187 32.9733 109.88 34.68 111.16 35.48C110.867 36.0133 110.293 36.5333 109.44 37.04C108.587 37.5467 107.587 37.8 106.44 37.8C105.32 37.8 104.427 37.64 103.76 37.32C103.093 37 102.573 36.5733 102.2 36.04C101.533 35.08 101.2 33.68 101.2 31.84V19.48L93.32 37H88.36L85.56 19.04L81.08 37H76.48ZM122.475 34.8C121.649 36.8 119.915 37.8 117.275 37.8C115.915 37.8 114.809 37.3333 113.955 36.4C113.235 35.5733 112.875 34.7467 112.875 33.92C112.875 31.76 113.369 28.5733 114.355 24.36L115.835 16.6L123.955 15.8L121.515 28.44C121.062 30.4133 120.835 31.7467 120.835 32.44C120.835 33.96 121.382 34.7467 122.475 34.8ZM116.555 11.04C116.555 10 116.982 9.2 117.835 8.64C118.715 8.08 119.782 7.8 121.035 7.8C122.289 7.8 123.289 8.08 124.035 8.64C124.809 9.2 125.195 10 125.195 11.04C125.195 12.08 124.769 12.8667 123.915 13.4C123.089 13.9333 122.049 14.2 120.795 14.2C119.542 14.2 118.515 13.9333 117.715 13.4C116.942 12.8667 116.555 12.08 116.555 11.04ZM145.523 20.36C145.523 21.48 145.056 22.3867 144.123 23.08C143.19 23.7733 141.963 24.12 140.443 24.12C139.803 24.12 139.296 24.0267 138.923 23.84C139.216 23.1467 139.403 22.3733 139.483 21.52C139.59 20.64 139.643 20.08 139.643 19.84C139.643 18.72 139.256 18.16 138.483 18.16C137.95 18.16 137.376 18.4933 136.763 19.16C136.176 19.8267 135.63 20.68 135.123 21.72C134.003 24.12 133.443 26.5333 133.443 28.96C133.443 30.2933 133.696 31.2667 134.203 31.88C134.71 32.4667 135.523 32.76 136.643 32.76C138.19 32.76 139.576 32.12 140.803 30.84C141.15 30.44 141.416 30.0133 141.603 29.56C142.616 30.0933 143.123 31.0933 143.123 32.56C143.123 34.0533 142.296 35.2933 140.643 36.28C138.936 37.2933 136.723 37.8 134.003 37.8C128.59 37.8 125.883 34.9333 125.883 29.2C125.883 25.0133 127.07 21.72 129.443 19.32C131.736 16.9733 134.99 15.8 139.203 15.8C143.416 15.8 145.523 17.32 145.523 20.36ZM159.106 25.76C160.066 24.0533 160.546 22.3333 160.546 20.6C160.546 19.4533 160.133 18.88 159.306 18.88C158.666 18.88 158.013 19.4267 157.346 20.52C156.653 21.6133 156.2 22.8667 155.986 24.28L153.906 37L145.626 37.8L149.706 16.6L156.306 15.8L155.586 19.84C156.893 17.1467 159.013 15.8 161.946 15.8C163.493 15.8 164.68 16.2 165.506 17C166.36 17.8 166.786 19.0267 166.786 20.68C166.786 22.3067 166.24 23.64 165.146 24.68C164.08 25.72 162.626 26.24 160.786 26.24C159.986 26.24 159.426 26.08 159.106 25.76ZM176.166 37.8C170.299 37.8 167.366 35.04 167.366 29.52C167.366 25.6 168.446 22.3733 170.606 19.84C172.899 17.1467 176.032 15.8 180.006 15.8C182.886 15.8 185.059 16.4667 186.526 17.8C187.992 19.1333 188.726 21.2 188.726 24C188.726 28.2667 187.579 31.64 185.286 34.12C183.046 36.5733 180.006 37.8 176.166 37.8ZM177.206 20.4C176.886 21.12 176.592 22.0267 176.326 23.12C176.086 24.1867 175.806 25.5733 175.486 27.28C175.166 28.9867 175.006 30.8933 175.006 33C175.006 33.6933 175.112 34.2667 175.326 34.72C175.566 35.1733 175.992 35.4 176.606 35.4C177.219 35.4 177.712 35.2533 178.086 34.96C178.486 34.6667 178.832 34.1733 179.126 33.48C179.659 32.2533 180.139 30.5067 180.566 28.24C180.992 25.9467 181.219 24.3067 181.246 23.32C181.299 22.3333 181.326 21.48 181.326 20.76C181.326 20.0133 181.219 19.4 181.006 18.92C180.792 18.44 180.379 18.2 179.766 18.2C179.179 18.2 178.686 18.3867 178.286 18.76C177.886 19.1333 177.526 19.68 177.206 20.4ZM190.558 35.08L195.518 9L203.638 8.2L202.398 14.32C202.105 15.5733 201.772 16.64 201.398 17.52C201.985 16.7733 202.918 16.2533 204.198 15.96C204.572 15.8533 204.985 15.8 205.438 15.8C207.918 15.8 209.838 16.56 211.198 18.08C212.558 19.5733 213.238 21.7733 213.238 24.68C213.238 28.4667 212.158 31.5467 209.998 33.92C207.678 36.5067 204.412 37.8 200.198 37.8C197.292 37.8 194.745 37.32 192.558 36.36C191.785 36.0133 191.118 35.5867 190.558 35.08ZM198.598 34.72C199.158 35.2 199.785 35.44 200.478 35.44C201.172 35.44 201.718 35.3067 202.118 35.04C202.518 34.7733 202.865 34.3733 203.158 33.84C203.958 32.4 204.678 29.48 205.318 25.08C205.505 23.8267 205.598 22.5733 205.598 21.32C205.598 20.0667 205.452 19.24 205.158 18.84C204.892 18.44 204.492 18.24 203.958 18.24C202.332 18.24 201.252 19.8267 200.718 23L198.598 34.72ZM225.209 34.8C224.382 36.8 222.649 37.8 220.009 37.8C218.675 37.8 217.582 37.3333 216.729 36.4C216.035 35.6267 215.689 34.8 215.689 33.92C215.689 31.92 216.155 28.7333 217.089 24.36L220.009 9L228.129 8.2L224.249 28.44C223.795 30.4133 223.569 31.7467 223.569 32.44C223.569 33.96 224.115 34.7467 225.209 34.8ZM237.338 37.8C231.471 37.8 228.538 35.04 228.538 29.52C228.538 25.6 229.618 22.3733 231.778 19.84C234.071 17.1467 237.204 15.8 241.178 15.8C244.058 15.8 246.231 16.4667 247.698 17.8C249.164 19.1333 249.898 21.2 249.898 24C249.898 28.2667 248.751 31.64 246.458 34.12C244.218 36.5733 241.178 37.8 237.338 37.8ZM238.378 20.4C238.058 21.12 237.764 22.0267 237.498 23.12C237.258 24.1867 236.978 25.5733 236.658 27.28C236.338 28.9867 236.178 30.8933 236.178 33C236.178 33.6933 236.284 34.2667 236.498 34.72C236.738 35.1733 237.164 35.4 237.778 35.4C238.391 35.4 238.884 35.2533 239.258 34.96C239.658 34.6667 240.004 34.1733 240.298 33.48C240.831 32.2533 241.311 30.5067 241.738 28.24C242.164 25.9467 242.391 24.3067 242.418 23.32C242.471 22.3333 242.498 21.48 242.498 20.76C242.498 20.0133 242.391 19.4 242.178 18.92C241.964 18.44 241.551 18.2 240.938 18.2C240.351 18.2 239.858 18.3867 239.458 18.76C239.058 19.1333 238.698 19.68 238.378 20.4ZM255.09 20.28C255.997 19 257.13 17.9333 258.49 17.08C259.877 16.2267 261.41 15.8 263.09 15.8C264.77 15.8 266.01 16.0667 266.81 16.6L274.65 15.8L271.93 31.16C270.997 36.3867 269.544 40.0267 267.57 42.08C265.677 44.0267 262.89 45 259.21 45C256.41 45 254.21 44.56 252.61 43.68C251.01 42.8 250.21 41.6267 250.21 40.16C250.21 39.0667 250.624 38.2 251.45 37.56C252.277 36.9467 253.33 36.64 254.61 36.64C255.73 36.64 256.717 36.8933 257.57 37.4C258.077 37.6667 258.45 37.9867 258.69 38.36C258.077 38.8933 257.77 39.6 257.77 40.48C257.77 41.6267 258.304 42.2 259.37 42.2C261.157 42.2 262.557 40.0933 263.57 35.88C263.864 34.7333 264.13 33.5867 264.37 32.44C263.17 33.9067 261.21 34.64 258.49 34.64C256.597 34.64 255.104 34.1867 254.01 33.28C252.917 32.3733 252.37 30.8533 252.37 28.72C252.37 27.3867 252.597 25.9733 253.05 24.48C253.504 22.96 254.184 21.56 255.09 20.28ZM260.29 28.84C260.29 30.6533 260.757 31.56 261.69 31.56C262.33 31.56 262.957 31.2133 263.57 30.52C264.05 29.96 264.384 29.2667 264.57 28.44L266.61 18.16C266.477 18.1333 266.344 18.0933 266.21 18.04C265.944 17.9333 265.637 17.88 265.29 17.88C263.664 17.88 262.37 19.2133 261.41 21.88C260.664 23.96 260.29 26.28 260.29 28.84Z" fill="black"/>
<path d="M76.48 37L83.72 10.6H92.08L93.92 25.68L101.36 10.6H108.36L109.08 30.36C109.187 32.9733 109.88 34.68 111.16 35.48C110.867 36.0133 110.293 36.5333 109.44 37.04C108.587 37.5467 107.587 37.8 106.44 37.8C105.32 37.8 104.427 37.64 103.76 37.32C103.093 37 102.573 36.5733 102.2 36.04C101.533 35.08 101.2 33.68 101.2 31.84V19.48L93.32 37H88.36L85.56 19.04L81.08 37H76.48ZM122.475 34.8C121.649 36.8 119.915 37.8 117.275 37.8C115.915 37.8 114.809 37.3333 113.955 36.4C113.235 35.5733 112.875 34.7467 112.875 33.92C112.875 31.76 113.369 28.5733 114.355 24.36L115.835 16.6L123.955 15.8L121.515 28.44C121.062 30.4133 120.835 31.7467 120.835 32.44C120.835 33.96 121.382 34.7467 122.475 34.8ZM116.555 11.04C116.555 10 116.982 9.2 117.835 8.64C118.715 8.08 119.782 7.8 121.035 7.8C122.289 7.8 123.289 8.08 124.035 8.64C124.809 9.2 125.195 10 125.195 11.04C125.195 12.08 124.769 12.8667 123.915 13.4C123.089 13.9333 122.049 14.2 120.795 14.2C119.542 14.2 118.515 13.9333 117.715 13.4C116.942 12.8667 116.555 12.08 116.555 11.04ZM145.523 20.36C145.523 21.48 145.056 22.3867 144.123 23.08C143.19 23.7733 141.963 24.12 140.443 24.12C139.803 24.12 139.296 24.0267 138.923 23.84C139.216 23.1467 139.403 22.3733 139.483 21.52C139.59 20.64 139.643 20.08 139.643 19.84C139.643 18.72 139.256 18.16 138.483 18.16C137.95 18.16 137.376 18.4933 136.763 19.16C136.176 19.8267 135.63 20.68 135.123 21.72C134.003 24.12 133.443 26.5333 133.443 28.96C133.443 30.2933 133.696 31.2667 134.203 31.88C134.71 32.4667 135.523 32.76 136.643 32.76C138.19 32.76 139.576 32.12 140.803 30.84C141.15 30.44 141.416 30.0133 141.603 29.56C142.616 30.0933 143.123 31.0933 143.123 32.56C143.123 34.0533 142.296 35.2933 140.643 36.28C138.936 37.2933 136.723 37.8 134.003 37.8C128.59 37.8 125.883 34.9333 125.883 29.2C125.883 25.0133 127.07 21.72 129.443 19.32C131.736 16.9733 134.99 15.8 139.203 15.8C143.416 15.8 145.523 17.32 145.523 20.36ZM159.106 25.76C160.066 24.0533 160.546 22.3333 160.546 20.6C160.546 19.4533 160.133 18.88 159.306 18.88C158.666 18.88 158.013 19.4267 157.346 20.52C156.653 21.6133 156.2 22.8667 155.986 24.28L153.906 37L145.626 37.8L149.706 16.6L156.306 15.8L155.586 19.84C156.893 17.1467 159.013 15.8 161.946 15.8C163.493 15.8 164.68 16.2 165.506 17C166.36 17.8 166.786 19.0267 166.786 20.68C166.786 22.3067 166.24 23.64 165.146 24.68C164.08 25.72 162.626 26.24 160.786 26.24C159.986 26.24 159.426 26.08 159.106 25.76ZM176.166 37.8C170.299 37.8 167.366 35.04 167.366 29.52C167.366 25.6 168.446 22.3733 170.606 19.84C172.899 17.1467 176.032 15.8 180.006 15.8C182.886 15.8 185.059 16.4667 186.526 17.8C187.992 19.1333 188.726 21.2 188.726 24C188.726 28.2667 187.579 31.64 185.286 34.12C183.046 36.5733 180.006 37.8 176.166 37.8ZM177.206 20.4C176.886 21.12 176.592 22.0267 176.326 23.12C176.086 24.1867 175.806 25.5733 175.486 27.28C175.166 28.9867 175.006 30.8933 175.006 33C175.006 33.6933 175.112 34.2667 175.326 34.72C175.566 35.1733 175.992 35.4 176.606 35.4C177.219 35.4 177.712 35.2533 178.086 34.96C178.486 34.6667 178.832 34.1733 179.126 33.48C179.659 32.2533 180.139 30.5067 180.566 28.24C180.992 25.9467 181.219 24.3067 181.246 23.32C181.299 22.3333 181.326 21.48 181.326 20.76C181.326 20.0133 181.219 19.4 181.006 18.92C180.792 18.44 180.379 18.2 179.766 18.2C179.179 18.2 178.686 18.3867 178.286 18.76C177.886 19.1333 177.526 19.68 177.206 20.4ZM190.558 35.08L195.518 9L203.638 8.2L202.398 14.32C202.105 15.5733 201.772 16.64 201.398 17.52C201.985 16.7733 202.918 16.2533 204.198 15.96C204.572 15.8533 204.985 15.8 205.438 15.8C207.918 15.8 209.838 16.56 211.198 18.08C212.558 19.5733 213.238 21.7733 213.238 24.68C213.238 28.4667 212.158 31.5467 209.998 33.92C207.678 36.5067 204.412 37.8 200.198 37.8C197.292 37.8 194.745 37.32 192.558 36.36C191.785 36.0133 191.118 35.5867 190.558 35.08ZM198.598 34.72C199.158 35.2 199.785 35.44 200.478 35.44C201.172 35.44 201.718 35.3067 202.118 35.04C202.518 34.7733 202.865 34.3733 203.158 33.84C203.958 32.4 204.678 29.48 205.318 25.08C205.505 23.8267 205.598 22.5733 205.598 21.32C205.598 20.0667 205.452 19.24 205.158 18.84C204.892 18.44 204.492 18.24 203.958 18.24C202.332 18.24 201.252 19.8267 200.718 23L198.598 34.72ZM225.209 34.8C224.382 36.8 222.649 37.8 220.009 37.8C218.675 37.8 217.582 37.3333 216.729 36.4C216.035 35.6267 215.689 34.8 215.689 33.92C215.689 31.92 216.155 28.7333 217.089 24.36L220.009 9L228.129 8.2L224.249 28.44C223.795 30.4133 223.569 31.7467 223.569 32.44C223.569 33.96 224.115 34.7467 225.209 34.8ZM237.338 37.8C231.471 37.8 228.538 35.04 228.538 29.52C228.538 25.6 229.618 22.3733 231.778 19.84C234.071 17.1467 237.204 15.8 241.178 15.8C244.058 15.8 246.231 16.4667 247.698 17.8C249.164 19.1333 249.898 21.2 249.898 24C249.898 28.2667 248.751 31.64 246.458 34.12C244.218 36.5733 241.178 37.8 237.338 37.8ZM238.378 20.4C238.058 21.12 237.764 22.0267 237.498 23.12C237.258 24.1867 236.978 25.5733 236.658 27.28C236.338 28.9867 236.178 30.8933 236.178 33C236.178 33.6933 236.284 34.2667 236.498 34.72C236.738 35.1733 237.164 35.4 237.778 35.4C238.391 35.4 238.884 35.2533 239.258 34.96C239.658 34.6667 240.004 34.1733 240.298 33.48C240.831 32.2533 241.311 30.5067 241.738 28.24C242.164 25.9467 242.391 24.3067 242.418 23.32C242.471 22.3333 242.498 21.48 242.498 20.76C242.498 20.0133 242.391 19.4 242.178 18.92C241.964 18.44 241.551 18.2 240.938 18.2C240.351 18.2 239.858 18.3867 239.458 18.76C239.058 19.1333 238.698 19.68 238.378 20.4ZM255.09 20.28C255.997 19 257.13 17.9333 258.49 17.08C259.877 16.2267 261.41 15.8 263.09 15.8C264.77 15.8 266.01 16.0667 266.81 16.6L274.65 15.8L271.93 31.16C270.997 36.3867 269.544 40.0267 267.57 42.08C265.677 44.0267 262.89 45 259.21 45C256.41 45 254.21 44.56 252.61 43.68C251.01 42.8 250.21 41.6267 250.21 40.16C250.21 39.0667 250.624 38.2 251.45 37.56C252.277 36.9467 253.33 36.64 254.61 36.64C255.73 36.64 256.717 36.8933 257.57 37.4C258.077 37.6667 258.45 37.9867 258.69 38.36C258.077 38.8933 257.77 39.6 257.77 40.48C257.77 41.6267 258.304 42.2 259.37 42.2C261.157 42.2 262.557 40.0933 263.57 35.88C263.864 34.7333 264.13 33.5867 264.37 32.44C263.17 33.9067 261.21 34.64 258.49 34.64C256.597 34.64 255.104 34.1867 254.01 33.28C252.917 32.3733 252.37 30.8533 252.37 28.72C252.37 27.3867 252.597 25.9733 253.05 24.48C253.504 22.96 254.184 21.56 255.09 20.28ZM260.29 28.84C260.29 30.6533 260.757 31.56 261.69 31.56C262.33 31.56 262.957 31.2133 263.57 30.52C264.05 29.96 264.384 29.2667 264.57 28.44L266.61 18.16C266.477 18.1333 266.344 18.0933 266.21 18.04C265.944 17.9333 265.637 17.88 265.29 17.88C263.664 17.88 262.37 19.2133 261.41 21.88C260.664 23.96 260.29 26.28 260.29 28.84Z" fill="black"/>
<defs>
<clipPath id="clip0_123_81">
<rect width="52" height="52" fill="white"/>
</clipPath>
<clipPath id="clip1_123_81">
<rect width="52" height="52" fill="white"/>
</clipPath>
</defs>
</svg>
